Coordinates
version=1
nRows=26
nColumns=24
inDegrees=yes

Units are S.I. units (second, meters, Newtons, ...)
Angles are in degrees.

endheader
time	pelvis_tilt	pelvis_list	pelvis_rotation	pelvis_tx	pelvis_ty	pelvis_tz	hip_flexion_r	hip_adduction_r	hip_rotation_r	knee_angle_r	ankle_angle_r	subtalar_angle_r	mtp_angle_r	hip_flexion_l	hip_adduction_l	hip_rotation_l	knee_angle_l	ankle_angle_l	subtalar_angle_l	mtp_angle_l	lumbar_extension	lumbar_bending	lumbar_rotation
      4.30000000	     -8.44329786	     -2.38384922	     -2.11483588	     -1.41075319	     -0.00009970	     -0.69310147	      7.36038677	      5.48038534	     -3.94873466	     -8.74412714	      3.60222033	     -9.15221596	      1.94513743	     31.19492271	     -8.79634659	    -17.31138224	    -57.29518748	     -4.24666050	    -13.36426603	      6.53443026	      6.05906914	      5.84670502	     -1.16168759
      4.30500000	     -8.59439406	     -2.30716274	     -2.21335830	     -1.40571605	     -0.00044861	     -0.69276291	      7.05400505	      5.42405712	     -3.86032914	     -8.48879710	      3.80544039	     -9.06332402	      2.02384967	     31.70550245	     -8.70349602	    -17.55775998	    -56.18836730	     -3.90366779	    -13.40770166	      6.34581083	      6.17548702	      5.72441343	     -0.99743495
      4.31000000	     -8.59734824	     -2.23780342	     -2.34426949	     -1.40072549	     -0.00066903	     -0.69261175	      6.61271544	      5.33963164	     -3.92182620	     -8.26348622	      4.02385407	     -8.69189789	      2.49362991	     32.02785773	     -8.61815200	    -17.93241729	    -55.06971818	     -3.24437543	    -13.40675461	      4.54289659	      6.10494117	      5.64854208	     -0.77316379
      4.31500000	     -8.76506516	     -2.19233248	     -2.48910614	     -1.39573290	     -0.00113510	     -0.69229428	      6.36009716	      5.31777042	     -3.80850865	     -8.07103318	      4.22465554	     -8.60471622	      2.56955995	     32.50261311	     -8.58934638	    -18.26561208	    -53.83548883	     -2.94555550	    -13.49766657	      4.37667132	      6.22013970	      5.57734742	     -0.58395327
      4.32000000	     -8.88319987	     -2.12575439	     -2.64753316	     -1.39072700	     -0.00156541	     -0.69204034	      6.06402046	      5.26098980	     -3.70418606	     -7.89938912	      4.45316583	     -8.44331177	      2.68225670	     32.88119404	     -8.53599137	    -18.65468114	    -52.51655480	     -2.64916519	    -13.61443557	      3.99746792	      6.27662116	      5.49645398	     -0.34627779
      4.32500000	     -8.87291286	     -2.09180339	     -2.71453586	     -1.38564209	     -0.00191197	     -0.69203138	      5.61123292	      5.19939004	     -3.84624230	     -7.69270022	      4.67752155	     -8.09125353	      3.16669838	     33.12626355	     -8.43658589	    -18.98774131	    -51.22034511	     -1.91996060	    -13.48270567	      1.91741632	      6.20852788	      5.44263749	     -0.20713325
      4.33000000	     -9.06534948	     -2.06912521	     -2.82473262	     -1.38059887	     -0.00251894	     -0.69184677	      5.40402087	      5.19173361	     -3.75560976	     -7.54360195	      4.87458447	     -8.05194550	      3.22786558	     33.55223048	     -8.39578527	    -19.31127840	    -49.78152862	     -1.66746968	    -13.50703716	      1.76471719	      6.35348986	      5.39495228	     -0.06016507
      4.33500000	     -9.21060118	     -2.02601611	     -2.95124993	     -1.37553075	     -0.00309651	     -0.69170083	      5.15201765	      5.15262734	     -3.66546604	     -7.40821745	      5.10407742	     -7.94058325	      3.31152953	     33.88188351	     -8.33587671	    -19.69197711	    -48.26444050	     -1.41114766	    -13.50656296	      1.47194098	      6.44405389	      5.33470169	      0.13046238
      4.34000000	     -9.18258485	     -1.99116120	     -3.00963732	     -1.37040056	     -0.00352220	     -0.69175834	      4.70033557	      5.08388989	     -3.79570988	     -7.24952771	      5.35914205	     -7.60259810	      3.68833939	     34.00708435	     -8.21735565	    -20.06234758	    -46.74262108	     -0.75066944	    -13.24897531	     -0.33989350	      6.35612992	      5.27642158	      0.28514488
      4.34500000	     -9.39535210	     -1.99630238	     -3.08043708	     -1.36530046	     -0.00426508	     -0.69169547	      4.52832909	      5.09697929	     -3.73249585	     -7.13563091	      5.56070837	     -7.58531665	      3.73568434	     34.37785903	     -8.16399785	    -20.36825238	    -45.11876973	     -0.54708214	    -13.11950933	     -0.45430257	      6.52752433	      5.25304199	      0.37956201
      4.35000000	     -9.55859716	     -1.97446740	     -3.16752843	     -1.36018498	     -0.00496989	     -0.69168072	      4.30851591	      5.07048985	     -3.67165636	     -7.03229707	      5.79985304	     -7.49669723	      3.79545514	     34.64479050	     -8.08451526	    -20.74118770	    -43.41597999	     -0.33464591	    -12.90156626	     -0.63235307	      6.63699931	      5.21688994	      0.53068501
      4.35500000	     -9.60769472	     -1.95249332	     -3.29733835	     -1.35504661	     -0.00554556	     -0.69162062	      3.97356424	      5.03478650	     -3.65369158	     -6.94691480	      6.05145133	     -7.25136276	      3.90005031	     34.73221525	     -8.02703685	    -21.20693307	    -41.64999778	     -0.06525473	    -12.55085442	     -1.03154731	      6.62293858	      5.17115965	      0.75918952
      4.36000000	     -9.72215403	     -1.94350119	     -3.34165176	     -1.34987065	     -0.00627535	     -0.69168981	      3.69866136	      5.01065761	     -3.66003060	     -6.85127488	      6.32023605	     -7.12247772	      3.98415665	     34.88700881	     -7.91059704	    -21.54559855	    -39.84120439	      0.18500283	    -12.10667971	     -1.26907986	      6.69078298	      5.12772733	      0.86041468
      4.36500000	     -9.83912008	     -1.94306957	     -3.37246973	     -1.34469694	     -0.00701799	     -0.69179053	      3.43185315	      4.99325903	     -3.68044910	     -6.76615645	      6.56338643	     -7.00215241	      4.04951348	     35.01727118	     -7.79027664	    -21.88978143	    -37.98318158	      0.37607549	    -11.56243961	     -1.37551187	      6.75697885	      5.09409542	      0.94420332
      4.37000000	     -9.93434718	     -1.93597134	     -3.40632004	     -1.33952870	     -0.00775000	     -0.69188747	      3.15399312	      4.96801237	     -3.73019929	     -6.70297134	      6.80739992	     -6.87284680	      4.11097292	     35.09139615	     -7.65785590	    -22.24528003	    -36.08124794	      0.53031595	    -10.88981835	     -1.34634322	      6.79300000	      5.04828751	      1.04035643
      4.37500000	    -10.02883784	     -1.93331170	     -3.43466364	     -1.33431419	     -0.00851992	     -0.69202024	      2.86867263	      4.94318678	     -3.76434842	     -6.63650015	      7.06584359	     -6.72722341	      4.17103905	     35.14015954	     -7.52022601	    -22.60790345	    -34.15564268	      0.67001075	    -10.10970162	     -1.14772667	      6.83705919	      5.00752634	      1.11193453
      4.38000000	    -10.08229735	     -1.92429079	     -3.46470589	     -1.32909701	     -0.00926659	     -0.69215133	      2.55571070	      4.90954342	     -3.84334272	     -6.60246730	      7.33127596	     -6.57267436	      4.23665182	     35.11731501	     -7.36584522	    -22.95153156	    -32.20394947	      0.76977390	     -9.21699505	     -0.69415420	      6.82861564	      4.95270446	      1.22624659
      4.38500000	    -10.11987712	     -1.90970773	     -3.49092098	     -1.32383119	     -0.01002666	     -0.69230371	      2.22261207	      4.86588468	     -3.92478990	     -6.56973529	      7.60945159	     -6.40134476	      4.31573116	     35.05680729	     -7.19691999	    -23.27951050	    -30.24300361	      0.80084262	     -8.24967232	      0.10440379	      6.80825244	      4.88870304	      1.33184465
      4.39000000	    -10.11140538	     -1.87184600	     -3.49288231	     -1.31847652	     -0.01072282	     -0.69255140	      1.81306546	      4.78200430	     -3.97616296	     -6.49499090	      7.85719190	     -6.21171596	      4.45546156	     34.89943204	     -6.96444993	    -23.59761418	    -28.16367782	      0.36953355	     -7.57068460	      2.12653996	      6.75543353	      4.80368240	      1.36113410
      4.39500000	    -10.21927384	     -1.89606310	     -3.49857454	     -1.31318800	     -0.01160227	     -0.69276884	      1.57675782	      4.78532119	     -4.11339353	     -6.50570789	      8.08926610	     -6.09864050	      4.48459175	     34.93061363	     -6.82322081	    -23.88274395	    -26.31128935	      0.51452487	     -6.39067066	      2.71177860	      6.80985485	      4.78319108	      1.43718777
      4.40000000	    -10.14269244	     -1.79425830	     -3.49582981	     -1.30777572	     -0.01220344	     -0.69303669	      1.12049624	      4.62449319	     -4.24641622	     -6.48183905	      8.36480714	     -5.86261764	      4.61270553	     34.66215236	     -6.49777744	    -24.14012320	    -24.24393160	     -0.02465404	     -5.73503342	      4.99762831	      6.68694331	      4.61752538	      1.50144487
      4.40500000	    -10.16090980	     -1.73058416	     -3.52444219	     -1.30240843	     -0.01293337	     -0.69328333	      0.79582841	      4.51345889	     -4.33849721	     -6.51419306	      8.63973262	     -5.64867335	      4.65699722	     34.55940124	     -6.25744624	    -24.38623869	    -22.45264382	      0.09910839	     -4.59322389	      5.62138550	      6.65306104	      4.50373149	      1.59657421
      4.41000000	    -10.04951671	     -1.56826636	     -3.53091364	     -1.29695988	     -0.01345398	     -0.69359268	      0.33324381	      4.27550790	     -4.51442490	     -6.54824025	      8.95010496	     -5.32582950	      4.72956680	     34.27277764	     -5.87152222	    -24.58567931	    -20.61630886	     -0.00898495	     -3.75712614	      6.62146585	      6.49427466	      4.27471611	      1.68229756
      4.41500000	    -10.05497882	     -1.43153789	     -3.47851673	     -1.29150390	     -0.01409385	     -0.69399250	      0.01100663	      4.07085607	     -4.76236614	     -6.60217232	      9.17868920	     -5.08888641	      4.95749148	     34.14418746	     -5.48460153	    -24.65398393	    -18.82534071	     -0.49362221	     -3.28349841	      8.83398334	      6.46723954	      4.07781947	      1.70206238
      4.42000000	    -10.01018726	     -1.24930580	     -3.48746026	     -1.28608919	     -0.01465910	     -0.69431986	     -0.34441715	      3.81688127	     -4.88037196	     -6.69448246	      9.43740036	     -4.89707289	      4.96974116	     33.99928135	     -5.10191535	    -24.73273818	    -17.30730544	     -0.39507384	     -2.52947981	      9.10028470	      6.37137425	      3.83075322	      1.80893393
      4.42500000	     -9.94714487	     -1.07495720	     -3.45349764	     -1.28066742	     -0.01523104	     -0.69472746	     -0.70218404	      3.56086493	     -5.07884285	     -6.82873231	      9.72201976	     -4.61204174	      4.99457425	     33.86478798	     -4.70593479	    -24.66870260	    -15.91875299	     -0.34914207	     -1.94066344	      9.48071639	      6.25719959	      3.58451578	      1.85669536
